<svg xmlns="http://www.w3.org/2000/svg" width="512" height="512" viewBox="0 0 512 512"><path fill="#0093ff" fill-rule="evenodd" d="M373.334 277.333c53.019 0 96 42.981 96 96c0 53.02-42.981 96-96 96c-53.02 0-96-42.98-96-96c0-53.019 42.98-96 96-96m-32 42.667v106.667l96-53.334zm-80.917 21.333a117.4 117.4 0 0 0-4.417 32c0 3.596.162 7.155.479 10.669L42.667 384v-42.667zM128 170.667V320H64V170.667zm106.667 64V320h-64v-85.333zm106.667-21.334l-.001 47.084c-26.217 7.415-48.704 23.715-64.002 45.44l.003-92.524zM448 234.667l.002 48.154c-17.715-14.63-39.798-24.161-64-26.343L384 234.667zM309.334 64c17.673 0 32 14.327 32 32q0 .654-.026 1.3l50.642 20.257c5.865-6.676 14.465-10.89 24.05-10.89c17.673 0 32 14.327 32 32s-14.327 32-32 32s-32-14.327-32-32q.001-.654.026-1.302l-50.64-20.257C327.52 123.785 318.918 128 309.333 128a31.87 31.87 0 0 1-20.392-7.338l-54.912 32.955c.418 2.063.637 4.197.637 6.383c0 17.673-14.327 32-32 32s-32-14.327-32-32c0-2.184.219-4.318.636-6.38l-54.92-32.95A31.87 31.87 0 0 1 96 128c-17.673 0-32-14.327-32-32s14.327-32 32-32s32 14.327 32 32c0 2.185-.219 4.318-.636 6.38l54.918 32.952A31.87 31.87 0 0 1 202.667 128a31.87 31.87 0 0 1 20.384 7.331l54.919-32.95a32 32 0 0 1-.636-6.381c0-17.673 14.327-32 32-32"/></svg>